<svg width="20" height="20" viewBox="0 0 20 20" fill="none" xmlns="http://www.w3.org/2000/svg">
<g clip-path="url(#clip0_1484_577)">
<path d="M11 12.3V13C11 13 9.19998 13 8.99998 13V12.4C8.99998 11.8 9.09998 11 9.79998 10.3C10.5 9.6 11.4 9.1 11.4 8.2C11.4 7.3 10.7 6.8 9.99998 6.8C8.69998 6.8 8.59998 8.2 8.49998 8.5H6.59998C6.59998 7.1 7.19998 5 9.99998 5C12.4 5 13.4 6.6 13.4 8C13.4 10.4 11 10.8 11 12.3Z" fill="white"/>
<path d="M10 16C10.5523 16 11 15.5523 11 15C11 14.4477 10.5523 14 10 14C9.44772 14 9 14.4477 9 15C9 15.5523 9.44772 16 10 16Z" fill="white"/>
<path d="M10 2C14.4 2 18 5.6 18 10C18 14.4 14.4 18 10 18C5.6 18 2 14.4 2 10C2 5.6 5.6 2 10 2ZM10 0C4.5 0 0 4.5 0 10C0 15.5 4.5 20 10 20C15.5 20 20 15.5 20 10C20 4.5 15.5 0 10 0Z" fill="white"/>
</g>
<defs>
<clipPath id="clip0_1484_577">
<rect width="20" height="20" fill="white"/>
</clipPath>
</defs>
</svg>
