<svg width="16" height="20" viewBox="0 0 16 20" fill="none" xmlns="http://www.w3.org/2000/svg">
<path d="M13.67 7.65C13.8858 7.21478 13.9987 6.73579 14 6.25C14.0024 5.42966 13.6946 4.63875 13.1381 4.03596C12.5817 3.43317 11.8179 3.0631 11 3C11 2.20435 10.6839 1.44129 10.1213 0.87868C9.55873 0.316071 8.79566 0 8.00001 0C7.20437 0 6.4413 0.316071 5.87869 0.87868C5.31608 1.44129 5.00001 2.20435 5.00001 3C4.1821 3.0631 3.41831 3.43317 2.86189 4.03596C2.30547 4.63875 1.99758 5.42966 2.00001 6.25C2.00129 6.73579 2.1142 7.21478 2.33001 7.65C1.6093 8.12022 1.05945 8.81034 0.762097 9.61788C0.464746 10.4254 0.435753 11.3073 0.679421 12.1327C0.923089 12.958 1.42643 13.6827 2.1147 14.1993C2.80297 14.7158 3.63948 14.9966 4.50002 15H7.00001V20H9.00002V15H11.5C12.3606 14.9966 13.1971 14.7158 13.8853 14.1993C14.5736 13.6827 15.0769 12.958 15.3206 12.1327C15.5643 11.3073 15.5353 10.4254 15.2379 9.61788C14.9406 8.81034 14.3907 8.12022 13.67 7.65Z" fill="#2F2C26"/>
</svg>
