<svg width="144" height="40" viewBox="0 0 144 40" fill="none" xmlns="http://www.w3.org/2000/svg">
<path d="M0.957143 29.0143C1.44286 27.2 1.88571 25.6571 1.88571 22.5857V18.4571C1.88571 15.7571 1.32857 14.2143 0 12.6286V12.4857L7.78571 10.3429V22.6C7.78571 25.6286 8.08571 27.2571 8.67143 29.0286V29.1H0.957143V29.0143ZM4.28571 8.11429C3.43892 8.11429 2.6268 7.7779 2.02802 7.17912C1.42925 6.58035 1.09286 5.76823 1.09286 4.92143C1.09286 4.07464 1.42925 3.26252 2.02802 2.66374C2.6268 2.06497 3.43892 1.72858 4.28571 1.72858C6.05714 1.72858 7.52857 3.17143 7.52857 4.9C7.52328 5.75581 7.17902 6.57463 6.57119 7.1771C5.96336 7.77957 5.14153 8.11657 4.28571 8.11429ZM31.7 26.0571C31.2891 26.3435 30.8008 26.498 30.3 26.5C29.1143 26.5 28.7143 25.7286 28.7143 24.8429V15.6571C28.7143 12.5143 26.4286 10.5286 23.1714 10.5286C19.8857 10.5286 17.9714 12.4857 16.9714 14.0714L16.8286 14.0286V10.3286L9.18571 12.4714V12.5429C10.5143 14.1286 11.0286 15.6429 11.0286 18.4143L11.0714 22.5857C11.0714 25.6857 10.7429 27.2429 10.1429 29.0143V29.0857H17.8571V29.0143C17.2714 27.2 16.9714 25.6571 16.9714 22.5857V15.0857C17.6714 14.0857 18.8571 13.2857 20.2143 13.2857C21.9857 13.2857 22.7571 14.4286 22.7571 16.0143V25.5429C22.7669 25.9545 22.8051 26.365 22.8714 26.7714C23.2 28.4286 24.5714 29.6143 26.8286 29.6143C29.9714 29.6143 31.2571 27.4429 31.7714 26.2143L31.7 26.0571ZM29.7286 32.5143C31.7286 32.7 35.2286 32.7429 36.7857 30.1143L31.3857 16.7143C29.9143 13.1714 29.4 12.1 28.5857 11.1714V11.1H37.6286V11.1714C36.9714 12.0286 36.6714 14.4571 37.6714 16.9286L39.8857 22.6857L42.3143 16.8429C43.3857 14.1857 42.6857 12.0143 41.9429 11.1571V11.0857H46.6714V11.1571C45.4143 12.5286 44.5 13.7 43.2429 16.7286L38.2571 28.6571C35.3 35.6429 33.1286 36.4143 29.7286 37.3714V32.5143ZM44.5 20.1143C44.5 14.9857 49 10.5143 54.4286 10.5143C59.8571 10.5143 64.3571 14.9857 64.3571 20.1143C64.3571 25.2429 59.8571 29.6429 54.4286 29.6429C49 29.6429 44.5 25.2429 44.5 20.1143ZM58.2429 20.1143C58.2429 14.8714 57.0571 11.2143 54.4429 11.2143C51.7857 11.2143 50.6429 14.8714 50.6429 20.1143C50.6429 25.3143 51.8286 28.9429 54.4429 28.9429C57.0571 28.9429 58.2286 25.3143 58.2429 20.1143ZM65.2857 16.7143C64.0286 13.5 63.3286 12.2429 62.3714 11.1714V11.1H71.5714V11.1714C70.9 12.0286 70.6857 14.3857 71.5714 16.6714L73.8286 22.5429L76.1429 17C77.3286 14.2286 76.5143 11.9429 75.9286 11.1714V11.1H80.5429V11.1714C79.2857 12.5429 78.4 13.6857 77.1143 16.7429L71.8286 29.3286H70.3857L65.2857 16.7143ZM88.1 26.7571C87.0714 28.2714 85.2857 29.6429 82.9286 29.6429C80.6714 29.6429 78.7571 28.5 78.7571 25.9429C78.7571 21.9571 83.8143 20.2143 87.9857 19.3286V17.0429C87.9857 14.8714 87.1 13.8714 84.4429 13.8714C82.7927 13.8861 81.1616 14.2259 79.6429 14.8714L79.5 14.6143C81.2571 12.4286 84.1429 10.5143 88.1714 10.5143C92.1572 10.5143 93.9286 12.4286 93.9286 15.3571V24.8429C93.9286 25.7286 94.3286 26.5 95.5143 26.5C96.0151 26.498 96.5034 26.3435 96.9143 26.0571L96.9857 26.2C96.4714 27.4143 95.1714 29.6 92.0429 29.6C89.7857 29.6 88.4286 28.4143 88.1 26.7571ZM87.9857 26.0571V20.1143C85.3714 20.8143 83.9571 22.2857 83.9571 24.0286C83.9571 25.4714 84.8 26.4286 86.4286 26.4286C86.9712 26.4434 87.5082 26.3153 87.9857 26.0571Z" fill="#2F2C26"/>
<path d="M122.871 19.9714V0.0285645H102.886C102.886 11.0429 111.843 20 122.857 20H102.886V39.9714C113.914 39.9714 122.871 31.0286 122.871 20H142.857V0.0285645C131.829 0.0285645 122.886 8.97142 122.871 19.9714Z" fill="#EE3C15"/>
</svg>
